<?xml version="1.0" standalone="no"?>
<svg xmlns="http://www.w3.org/2000/svg" viewBox="0 0 181.856 36" width="181.856" height="36"><g fill="#fffefe" color="#fffefe" transform="translate(157.856, 6) scale(0.24)"><g transform="translate(17.999, 18.0)"><svg width="99.998" height="100.0" x="-17.999" y="-18.0" viewBox="-17.999 -18 99.998 100"><path fill="currentColor" d="M27.132,79.851c6.836-2.587,12.301-7.213,16.037-12.915c-13.895,4.746-29.144-2.562-34.102-16.421  C4.22,36.955,10.981,22.007,24.15,16.555c-6.577-1.815-13.747-1.678-20.591,0.907c-17.184,6.494-25.901,25.801-19.41,42.979  C-9.36,77.622,9.949,86.347,27.132,79.851z"></path><path fill="currentColor" d="M60.933,63.972h0.003l0.156,0.371l0.158,0.372c0.659,1.545,0.464,3.966-0.438,5.386L60.6,70.44l-1.853,2.919  l3.041-0.272h0.003l0.403-0.035l0.401-0.038c1.67-0.147,3.912,0.791,4.982,2.08l0.259,0.312l0.261,0.311l1.945,2.353l0.771-3.369  l0.091-0.394c0.376-1.634,1.96-3.479,3.518-4.099l0.374-0.151l0.373-0.145l0.003-0.004l2.836-1.119l-2.618-1.572l-0.346-0.21  l-0.35-0.206c-1.439-0.862-2.698-2.937-2.809-4.615l-0.011-0.166l-0.038-0.637V61.38l-0.193-3.047l-2.3,2.004v0.002L68.86,60.76  l-0.128,0.112c-1.265,1.104-3.628,1.664-5.256,1.248l-0.781-0.197l-2.96-0.756L60.933,63.972z"></path><path fill="currentColor" d="M65.844-6.688l0.365,0.173l0.365,0.174c1.516,0.722,2.97,2.668,3.237,4.326l0.062,0.397l0.547,3.413  l2.098-2.214l0.278-0.293l0.274-0.295c1.154-1.218,3.455-2.004,5.115-1.743l0.397,0.065l0.399,0.061h0.004l3.013,0.475l-1.651-3.036  L80.156-5.54c-0.803-1.476-0.835-3.905-0.076-5.404l0.182-0.361l0.186-0.358l1.382-2.72l-2.998,0.557h-0.004l-0.399,0.074  l-0.395,0.074c-1.649,0.306-3.972-0.413-5.158-1.6l-0.123-0.119l-0.448-0.448l-0.003-0.002L70.141-18l-0.394,3.022v0.003  l-0.084,0.632l-0.024,0.168c-0.218,1.665-1.617,3.65-3.111,4.417l-0.722,0.364v0.002L63.09-8l2.754,1.31V-6.688z"></path><path fill="currentColor" d="M36.923,27.929l0.42,0.41c1.732,1.689,2.817,5.027,2.405,7.411l-0.098,0.576l-0.843,4.91l3.898-2.047  l0.511-0.271l0.519-0.27c2.145-1.13,5.651-1.13,7.795,0l0.514,0.27l0.512,0.271h0.003l3.897,2.047l-0.843-4.91l-0.098-0.576  c-0.414-2.384,0.671-5.722,2.405-7.411l0.418-0.41l0.42-0.403l3.153-3.074l-4.356-0.633h-0.004l-1.153-0.166  c-2.395-0.353-5.229-2.414-6.303-4.584l-0.108-0.217l-0.405-0.824v-0.004l-1.949-3.946l-1.95,3.946v0.004l-0.404,0.824l-0.108,0.217  c-1.071,2.17-3.91,4.231-6.305,4.584l-0.579,0.083l-0.575,0.083l-4.358,0.633l3.15,3.074L36.923,27.929z"></path><path fill="currentColor" d="M-9.156-1.322l-1.849,2.919l3.04-0.272L-7.56,1.29l0.4-0.037c1.672-0.148,3.914,0.79,4.985,2.08l0.256,0.311  l0.258,0.311h0.003l1.946,2.352l0.77-3.37l0.091-0.394C1.522,0.91,3.105-0.937,4.664-1.555l0.38-0.152l0.373-0.146v-0.001  l2.841-1.123l-2.62-1.568L5.291-4.755L4.944-4.96C3.503-5.823,2.243-7.897,2.133-9.576L2.122-9.742l-0.039-0.636v-0.002  l-0.197-3.044l-2.296,2.003l-0.003,0.002L-0.895-11l-0.126,0.11c-1.263,1.104-3.628,1.666-5.255,1.249L-7.058-9.84l-2.959-0.756  l1.198,2.804v0.002l0.159,0.37l0.159,0.373c0.658,1.544,0.459,3.967-0.438,5.386L-9.156-1.322z"></path></svg></g></g><path fill="#ac0b0e" fill-rule="nonzero" d="M3.34 0.14L3.34 17.23L0 17.23L0 0.14L3.34 0.14ZM18.84 12.19L18.84 12.19Q18.84 14.62 17.06 16.00Q15.29 17.38 12.53 17.38L12.53 17.38Q10.34 17.38 8.30 16.18L8.30 16.18Q7.30 15.55 6.65 14.41Q6 13.27 6 11.81L6 11.81L9.02 11.66Q9.02 12.96 10.13 13.68Q11.23 14.40 12.58 14.40L12.58 14.40Q15.58 14.40 15.58 12.29L15.58 12.29Q15.58 10.56 13.54 10.25L13.54 10.25L10.75 9.96Q8.66 9.65 7.44 8.47Q6.22 7.30 6.22 5.09Q6.22 2.88 7.97 1.44Q9.72 0 12.40 0Q15.07 0 16.70 1.36Q18.34 2.71 18.34 4.85L18.34 4.85L15.36 4.99Q14.95 2.90 12.55 2.90L12.55 2.90Q11.09 2.90 10.26 3.53Q9.43 4.15 9.43 5.00Q9.43 5.86 10.03 6.35Q10.63 6.84 11.52 6.96L11.52 6.96L14.26 7.25Q18.84 7.87 18.84 12.19ZM32.76 14.26L32.76 17.23L26.71 17.23Q23.83 17.23 22.67 16.24Q21.50 15.24 21.50 12.72L21.50 12.72L21.50 0.14L32.76 0.14L32.76 3.12L24.84 3.12L24.84 7.13L30.38 7.13L30.14 10.10L24.84 10.10L24.84 12.48Q24.84 13.49 25.30 13.87Q25.75 14.26 26.95 14.26L26.95 14.26L32.76 14.26ZM46.01 0.14L49.34 0.14L49.34 15.50Q49.34 16.30 48.86 16.86Q48.38 17.42 47.74 17.42L47.74 17.42Q46.08 17.42 45.02 15.50L45.02 15.50L39.12 6.26L39.12 17.23L35.78 17.23L35.78 0.14L39 0.14L46.01 11.33L46.01 0.14ZM64.32 12.19L64.32 12.19Q64.32 14.62 62.54 16.00Q60.77 17.38 58.01 17.38L58.01 17.38Q55.82 17.38 53.78 16.18L53.78 16.18Q52.78 15.55 52.13 14.41Q51.48 13.27 51.48 11.81L51.48 11.81L54.50 11.66Q54.50 12.96 55.61 13.68Q56.71 14.40 58.06 14.40L58.06 14.40Q61.06 14.40 61.06 12.29L61.06 12.29Q61.06 10.56 59.02 10.25L59.02 10.25L56.23 9.96Q54.14 9.65 52.92 8.47Q51.70 7.30 51.70 5.09Q51.70 2.88 53.45 1.44Q55.20 0 57.88 0Q60.55 0 62.18 1.36Q63.82 2.71 63.82 4.85L63.82 4.85L60.84 4.99Q60.43 2.90 58.03 2.90L58.03 2.90Q56.57 2.90 55.74 3.53Q54.91 4.15 54.91 5.00Q54.91 5.86 55.51 6.35Q56.11 6.84 57.00 6.96L57.00 6.96L59.74 7.25Q64.32 7.87 64.32 12.19ZM78.10 0.14L78.10 3.12L73.51 3.12L73.51 17.23L70.18 17.23L70.18 3.12L65.62 3.12L65.62 0.14L78.10 0.14ZM91.94 14.26L91.94 17.23L85.90 17.23Q83.02 17.23 81.85 16.24Q80.69 15.24 80.69 12.72L80.69 12.72L80.69 0.14L91.94 0.14L91.94 3.12L84.02 3.12L84.02 7.13L89.57 7.13L89.33 10.10L84.02 10.10L84.02 12.48Q84.02 13.49 84.48 13.87Q84.94 14.26 86.14 14.26L86.14 14.26L91.94 14.26ZM105.74 14.26L105.74 17.23L100.66 17.23Q97.78 17.23 96.49 16.12Q95.21 15 95.21 12.48L95.21 12.48L95.21 0.14L98.54 0.14L98.54 12.48Q98.54 13.49 99 13.87Q99.46 14.26 100.66 14.26L100.66 14.26L105.74 14.26ZM118.94 14.26L118.94 17.23L113.86 17.23Q110.98 17.23 109.69 16.12Q108.41 15 108.41 12.48L108.41 12.48L108.41 0.14L111.74 0.14L111.74 12.48Q111.74 13.49 112.20 13.87Q112.66 14.26 113.86 14.26L113.86 14.26L118.94 14.26ZM129.10 1.58L134.57 17.23L131.09 17.23L130.13 14.28L124.39 14.28L123.46 17.23L119.98 17.23L125.45 1.58Q125.81 0.77 126.25 0.46Q126.70 0.14 127.34 0.14Q127.99 0.14 128.39 0.43Q128.78 0.72 129.10 1.58L129.10 1.58ZM125.23 11.47L129.36 11.47L127.34 4.70L125.23 11.47ZM146.04 10.34L149.86 17.23L145.99 17.23L142.66 10.90L140.26 10.90L140.26 17.23L136.92 17.23L136.92 3.82Q136.92 1.90 137.81 1.02Q138.70 0.14 140.78 0.14L140.78 0.14L143.62 0.14Q146.16 0.14 147.66 1.69Q149.16 3.24 149.16 5.62L149.16 5.62Q149.16 7.34 148.26 8.60Q147.36 9.86 146.04 10.34L146.04 10.34ZM143.40 8.11Q144.46 8.11 145.14 7.38Q145.82 6.65 145.82 5.56Q145.82 4.46 145.16 3.79Q144.50 3.12 143.40 3.12L143.40 3.12L141.74 3.12Q140.26 3.12 140.26 4.63L140.26 4.63L140.26 8.11L143.40 8.11Z" transform="translate(0, 9.288)"></path></svg>